<?xml version="1.0" encoding="utf-8"?>
<!-- Generator: Adobe Illustrator 16.0.3, SVG Export Plug-In . SVG Version: 6.00 Build 0)  -->
<!DOCTYPE svg PUBLIC "-//W3C//DTD SVG 1.1//EN" "http://www.w3.org/Graphics/SVG/1.1/DTD/svg11.dtd">
<svg version="1.1" id="Layer_1" xmlns="http://www.w3.org/2000/svg" xmlns:xlink="http://www.w3.org/1999/xlink" x="0px" y="0px"
	 width="64px" height="64px" viewBox="0 0 64 64" enable-background="new 0 0 64 64" xml:space="preserve">
<g>
	<path fill="#DB383B" d="M54.551,35.474c0-2.442-0.39-4.847-1.162-7.148c-0.746-2.219-1.833-4.31-3.229-6.207
		c-1.083-1.464-2.329-2.791-3.727-3.954V3.06c0-0.947-0.765-1.715-1.713-1.715H19.276c-0.944,0-1.716,0.768-1.716,1.715v15.105
		c-1.395,1.164-2.642,2.49-3.721,3.954c-1.401,1.896-2.488,3.987-3.23,6.207c-0.771,2.301-1.16,4.706-1.16,7.148
		c0,10.055,6.604,18.584,15.705,21.492l0.069,0.23c0.427,1.424,1.318,2.709,2.514,3.614c1.235,0.936,2.71,1.428,4.264,1.428
		c1.553,0,3.021-0.492,4.261-1.428c1.193-0.905,2.086-2.19,2.515-3.614l0.067-0.23C47.945,54.058,54.551,45.528,54.551,35.474z
		 M18.279,3.06c0-0.551,0.446-1.001,0.997-1.001H44.72c0.551,0,0.999,0.45,0.999,1.001v14.079c-1.896-1.422-3.982-2.533-6.213-3.311
		c-0.416-1.599-1.353-3.046-2.65-4.094c-1.373-1.104-3.098-1.712-4.854-1.712c-1.762,0-3.484,0.608-4.858,1.712
		c-1.299,1.047-2.235,2.495-2.652,4.094c-2.231,0.778-4.315,1.888-6.211,3.311V3.06z M32.001,61.524c-2.566,0-4.887-1.575-5.866-3.9
		c1.905,0.504,3.876,0.758,5.866,0.758c1.987,0,3.954-0.254,5.859-0.758C36.887,59.949,34.563,61.524,32.001,61.524z M32.001,57.307
		c-12.043,0-21.838-9.796-21.838-21.833c0-9.46,6.046-17.801,15.044-20.754l0.199-0.064l0.042-0.205
		c0.627-3.103,3.383-5.352,6.553-5.352c3.169,0,5.922,2.249,6.55,5.352l0.039,0.205l0.198,0.064
		c8.998,2.954,15.049,11.292,15.049,20.754C53.837,47.511,44.041,57.307,32.001,57.307z"/>
	<path fill="#DB383B" d="M46.478,25.313c-1.017-1.439-2.229-2.717-3.622-3.799c-1.402-1.093-2.948-1.967-4.604-2.593l-0.289-0.109
		l-0.151,0.268c-1.186,2.087-3.416,3.386-5.811,3.386c-2.402,0-4.627-1.299-5.816-3.386l-0.151-0.268l-0.287,0.109
		c-1.651,0.626-3.2,1.5-4.605,2.593c-1.387,1.083-2.606,2.36-3.619,3.799c-2.105,2.989-3.215,6.502-3.215,10.16
		c0,9.756,7.938,17.699,17.694,17.699c9.755,0,17.694-7.943,17.694-17.699C49.695,31.815,48.58,28.302,46.478,25.313z
		 M18.279,26.106c1.825-2.665,4.343-4.722,7.309-5.965c0.667,0.983,1.563,1.808,2.599,2.395c1.157,0.653,2.478,1,3.814,1
		c1.338,0,2.653-0.347,3.812-1c1.035-0.587,1.928-1.412,2.599-2.395c2.964,1.243,5.482,3.3,7.308,5.965v2.398
		c0,0.552-0.448,0.997-0.999,0.997H19.276c-0.551,0-0.997-0.444-0.997-0.997V26.106z M32.001,52.097
		c-1.728,0-3.424-0.266-5.052-0.789c1.197-1.571,3.056-2.491,5.052-2.491c1.993,0,3.848,0.92,5.045,2.491
		C35.42,51.831,33.727,52.097,32.001,52.097z M37.963,51.367L37.919,51.3c-1.313-2.008-3.527-3.201-5.918-3.201
		c-2.396,0-4.611,1.193-5.923,3.201l-0.045,0.067c-6.428-2.419-11.013-8.629-11.013-15.894c0-3.198,0.921-6.266,2.54-8.893v1.924
		c0,0.942,0.771,1.714,1.716,1.714H44.72c0.948,0,1.713-0.772,1.713-1.714v-1.924c1.628,2.627,2.545,5.695,2.545,8.893
		C48.978,42.738,44.39,48.948,37.963,51.367z"/>
	<path fill="#DB383B" d="M32.001,21.306c1.83,0,3.545-0.909,4.573-2.43c0.111-0.164,0.21-0.333,0.305-0.51
		c0.008-0.007,0.008-0.017,0.017-0.025l0.008-0.014c0.021-0.042,0.04-0.089,0.064-0.131c0.008-0.01,0.016-0.023,0.016-0.039
		l0.012-0.015c0.02-0.042,0.035-0.082,0.051-0.119c0.012-0.022,0.021-0.041,0.032-0.062c0.012-0.039,0.031-0.078,0.047-0.119
		c0.008-0.019,0.018-0.041,0.025-0.061c0.016-0.042,0.027-0.082,0.043-0.125l0.008-0.013c0.008-0.015,0.008-0.028,0.016-0.043
		c0.017-0.046,0.032-0.092,0.044-0.137l0.008-0.015c0.004-0.01,0.004-0.021,0.012-0.032c0.035-0.123,0.067-0.251,0.1-0.378
		c0-0.011,0.004-0.026,0.008-0.036l0.004-0.018c0.009-0.047,0.021-0.091,0.028-0.138c0.004-0.017,0.008-0.036,0.012-0.05v-0.017
		c0.008-0.042,0.016-0.085,0.023-0.125c0.004-0.024,0.008-0.052,0.008-0.077c0.008-0.04,0.012-0.083,0.02-0.121
		c0.004-0.026,0.008-0.053,0.008-0.078c0.004-0.039,0.013-0.081,0.013-0.124v-0.017c0.004-0.018,0.004-0.039,0.004-0.058
		c0.004-0.044,0.008-0.091,0.012-0.133v-0.021c0-0.015,0-0.028,0.004-0.047c0-0.07,0.004-0.137,0.004-0.2
		c0-0.058-0.004-0.121-0.004-0.195l-0.004-0.043c-0.004-0.07-0.008-0.131-0.012-0.191l-0.004-0.027c0-0.057-0.009-0.113-0.017-0.174
		l-0.004-0.035c-0.008-0.063-0.02-0.127-0.023-0.191l-0.008-0.027c-0.012-0.068-0.02-0.127-0.031-0.189l-0.004-0.007
		c-0.008-0.067-0.024-0.131-0.04-0.197l-0.008-0.018c-0.032-0.134-0.068-0.269-0.111-0.396c-0.02-0.067-0.04-0.134-0.071-0.208
		l-0.012-0.027c-0.023-0.072-0.049-0.135-0.072-0.196c-0.864-2.066-2.864-3.399-5.101-3.399s-4.239,1.333-5.103,3.399
		c-0.281,0.676-0.425,1.391-0.425,2.124c0,1.11,0.33,2.178,0.949,3.095C28.455,20.397,30.168,21.306,32.001,21.306z M35.618,18.373
		c-0.842,1.165-2.193,1.861-3.617,1.861c-1.429,0-2.782-0.696-3.615-1.861l0,0c-0.55-0.756-0.837-1.655-0.837-2.592
		c0-0.673,0.146-1.317,0.436-1.917c0.741-1.539,2.313-2.533,4.017-2.533c1.701,0,3.275,0.994,4.015,2.533
		c0.285,0.601,0.435,1.244,0.435,1.917C36.45,16.718,36.161,17.617,35.618,18.373z"/>
</g>
</svg>
