<?xml version="1.0" encoding="utf-8"?>
<!-- Generator: Adobe Illustrator 16.0.3, SVG Export Plug-In . SVG Version: 6.00 Build 0)  -->
<!DOCTYPE svg PUBLIC "-//W3C//DTD SVG 1.1//EN" "http://www.w3.org/Graphics/SVG/1.1/DTD/svg11.dtd">
<svg version="1.1" id="Layer_1" xmlns="http://www.w3.org/2000/svg" xmlns:xlink="http://www.w3.org/1999/xlink" x="0px" y="0px"
	 width="32px" height="32px" viewBox="0 0 32 32" enable-background="new 0 0 32 32" xml:space="preserve">
<g>
	<path fill="#DB383B" d="M27.102,17.813c0-1.202-0.191-2.386-0.572-3.519c-0.367-1.093-0.902-2.122-1.59-3.056
		c-0.533-0.721-1.146-1.374-1.834-1.947V1.855c0-0.466-0.377-0.844-0.844-0.844H9.736c-0.465,0-0.844,0.378-0.844,0.844v7.436
		c-0.687,0.573-1.301,1.226-1.832,1.947c-0.69,0.934-1.225,1.963-1.59,3.056c-0.38,1.132-0.571,2.316-0.571,3.519
		c0,4.949,3.251,9.148,7.731,10.58l0.034,0.113c0.21,0.701,0.649,1.334,1.238,1.779c0.608,0.461,1.333,0.703,2.099,0.703
		c0.765,0,1.488-0.242,2.097-0.703c0.588-0.445,1.027-1.078,1.238-1.779l0.033-0.113C23.85,26.961,27.102,22.762,27.102,17.813z
		 M9.246,1.855c0-0.271,0.22-0.493,0.491-0.493h12.525c0.271,0,0.492,0.222,0.492,0.493v6.931c-0.934-0.7-1.961-1.247-3.059-1.63
		c-0.205-0.787-0.666-1.5-1.305-2.015C17.715,4.598,16.866,4.299,16,4.299c-0.867,0-1.715,0.299-2.392,0.843
		c-0.639,0.516-1.101,1.228-1.306,2.015c-1.099,0.383-2.125,0.93-3.058,1.63V1.855z M16,30.637c-1.263,0-2.406-0.775-2.888-1.92
		c0.938,0.248,1.909,0.373,2.888,0.373c0.979,0,1.947-0.125,2.884-0.373C18.406,29.861,17.262,30.637,16,30.637z M16,28.561
		c-5.928,0-10.75-4.822-10.75-10.748c0-4.657,2.976-8.763,7.406-10.217l0.098-0.031l0.021-0.101C13.083,5.936,14.44,4.828,16,4.828
		s2.916,1.107,3.224,2.635l0.02,0.101l0.098,0.031c4.43,1.454,7.408,5.559,7.408,10.217C26.75,23.738,21.928,28.561,16,28.561z"/>
	<path fill="#DB383B" d="M23.127,12.811c-0.5-0.708-1.098-1.337-1.783-1.87c-0.689-0.538-1.451-0.968-2.266-1.276L18.936,9.61
		l-0.074,0.132C18.277,10.77,17.18,11.409,16,11.409c-1.182,0-2.278-0.64-2.863-1.667L13.063,9.61l-0.141,0.054
		c-0.813,0.308-1.576,0.738-2.267,1.276c-0.683,0.533-1.283,1.162-1.781,1.87c-1.037,1.472-1.583,3.201-1.583,5.002
		c0,4.803,3.907,8.713,8.71,8.713c4.802,0,8.71-3.91,8.71-8.713C24.711,16.012,24.162,14.282,23.127,12.811z M9.246,13.201
		c0.898-1.312,2.138-2.325,3.598-2.937c0.329,0.484,0.77,0.89,1.28,1.179c0.57,0.322,1.219,0.493,1.877,0.493
		s1.306-0.171,1.876-0.493c0.51-0.289,0.949-0.695,1.279-1.179c1.459,0.612,2.699,1.625,3.598,2.937v1.181
		c0,0.271-0.221,0.49-0.492,0.49H9.736c-0.271,0-0.491-0.219-0.491-0.49V13.201z M16,25.996c-0.85,0-1.686-0.131-2.487-0.389
		c0.589-0.773,1.504-1.227,2.487-1.227c0.981,0,1.894,0.453,2.484,1.227C17.684,25.865,16.85,25.996,16,25.996z M18.936,25.637
		l-0.021-0.033c-0.646-0.988-1.736-1.576-2.914-1.576c-1.18,0-2.27,0.588-2.916,1.576l-0.022,0.033
		c-3.164-1.191-5.421-4.248-5.421-7.824c0-1.575,0.453-3.084,1.25-4.377v0.947c0,0.464,0.379,0.844,0.844,0.844h12.525
		c0.467,0,0.844-0.38,0.844-0.844v-0.947c0.801,1.293,1.252,2.803,1.252,4.377C24.357,21.389,22.1,24.445,18.936,25.637z"/>
	<path fill="#DB383B" d="M16,10.838c0.901,0,1.746-0.448,2.251-1.196c0.055-0.081,0.104-0.164,0.15-0.251
		c0.004-0.003,0.004-0.008,0.008-0.012l0.004-0.007c0.01-0.021,0.02-0.044,0.031-0.064c0.004-0.005,0.008-0.012,0.008-0.019
		l0.006-0.007c0.01-0.021,0.018-0.04,0.025-0.059c0.006-0.011,0.01-0.02,0.016-0.03c0.006-0.019,0.016-0.038,0.023-0.059
		c0.004-0.009,0.008-0.02,0.012-0.03c0.008-0.021,0.014-0.04,0.021-0.061l0.004-0.006c0.004-0.007,0.004-0.014,0.008-0.021
		c0.008-0.023,0.016-0.045,0.021-0.068l0.004-0.007c0.002-0.005,0.002-0.01,0.006-0.016c0.018-0.061,0.033-0.124,0.049-0.186
		c0-0.005,0.002-0.013,0.004-0.018l0.002-0.009c0.004-0.023,0.01-0.045,0.014-0.068c0.002-0.008,0.004-0.018,0.006-0.024V8.611
		c0.004-0.021,0.008-0.042,0.012-0.062c0.002-0.012,0.004-0.026,0.004-0.038c0.004-0.02,0.006-0.041,0.01-0.06
		c0.002-0.013,0.004-0.026,0.004-0.039c0.002-0.019,0.006-0.04,0.006-0.061V8.344c0.002-0.009,0.002-0.019,0.002-0.028
		c0.002-0.022,0.004-0.045,0.006-0.066V8.24c0-0.007,0-0.014,0.002-0.023c0-0.035,0.002-0.067,0.002-0.099
		c0-0.028-0.002-0.06-0.002-0.096l-0.002-0.021c-0.002-0.035-0.004-0.064-0.006-0.094l-0.002-0.014c0-0.028-0.004-0.056-0.008-0.085
		l-0.002-0.017c-0.004-0.031-0.01-0.063-0.012-0.094l-0.004-0.014c-0.006-0.033-0.01-0.063-0.016-0.093l-0.002-0.003
		c-0.004-0.033-0.012-0.064-0.02-0.097L18.643,7.48c-0.016-0.066-0.033-0.132-0.055-0.195c-0.01-0.033-0.02-0.066-0.035-0.103
		l-0.006-0.014c-0.012-0.035-0.023-0.066-0.035-0.096C18.086,6.056,17.102,5.399,16,5.399s-2.087,0.656-2.512,1.673
		C13.35,7.406,13.28,7.757,13.28,8.118c0,0.546,0.162,1.072,0.467,1.523C14.255,10.39,15.098,10.838,16,10.838z M17.781,9.394
		C17.367,9.967,16.702,10.31,16,10.31c-0.704,0-1.369-0.343-1.78-0.916l0,0c-0.271-0.373-0.412-0.814-0.412-1.276
		c0-0.332,0.072-0.648,0.214-0.944C14.388,6.417,15.162,5.927,16,5.927c0.838,0,1.613,0.489,1.976,1.247
		c0.141,0.295,0.215,0.612,0.215,0.944C18.191,8.58,18.049,9.021,17.781,9.394z"/>
</g>
</svg>
