<?xml version="1.0" encoding="utf-8"?>
<!-- Generator: Adobe Illustrator 16.0.3, SVG Export Plug-In . SVG Version: 6.00 Build 0)  -->
<!DOCTYPE svg PUBLIC "-//W3C//DTD SVG 1.1//EN" "http://www.w3.org/Graphics/SVG/1.1/DTD/svg11.dtd">
<svg version="1.1" id="Layer_1" xmlns="http://www.w3.org/2000/svg" xmlns:xlink="http://www.w3.org/1999/xlink" x="0px" y="0px"
	 width="160px" height="32px" viewBox="0 0 160 32" enable-background="new 0 0 160 32" xml:space="preserve">
<g>
	<g>
		<path fill-rule="evenodd" clip-rule="evenodd" fill="#B22234" d="M17.553,23.331c-2.451,0-4.323-0.652-5.615-1.957
			C10.646,20.07,10,18.214,10,15.808c0-2.531,0.664-4.487,1.993-5.87c1.329-1.382,3.256-2.072,5.781-2.072
			c1.668,0,3.123,0.217,4.363,0.651v3.215c-1.122-0.435-2.488-0.652-4.098-0.652c-1.536,0-2.654,0.38-3.355,1.142
			c-0.702,0.761-1.052,1.956-1.052,3.587c0,1.475,0.329,2.565,0.985,3.272c0.657,0.706,1.643,1.06,2.957,1.06
			c0.856,0,1.654-0.124,2.392-0.373v-2.841h-3.079v-2.353h6.069v7.43c-0.576,0.389-1.314,0.706-2.215,0.955
			C19.841,23.206,18.778,23.331,17.553,23.331z"/>
		<path fill-rule="evenodd" clip-rule="evenodd" fill="#B22234" d="M25.629,12.058h3.389l0.111,1.024
			c0.472-0.295,1.048-0.563,1.728-0.804c0.679-0.24,1.351-0.392,2.016-0.454v2.818c-0.62,0.078-1.285,0.214-1.994,0.408
			c-0.708,0.193-1.27,0.399-1.683,0.617v7.43h-3.566V12.058z"/>
		<path fill-rule="evenodd" clip-rule="evenodd" fill="#B22234" d="M40.572,23.331c-3.942,0-5.914-1.918-5.914-5.754
			c0-1.863,0.491-3.288,1.473-4.273c0.982-0.986,2.462-1.479,4.441-1.479c1.994,0,3.481,0.489,4.463,1.468s1.473,2.406,1.473,4.285
			C46.508,21.413,44.529,23.331,40.572,23.331z M40.572,20.396c0.827,0,1.417-0.217,1.772-0.652
			c0.354-0.435,0.532-1.156,0.532-2.166c0-1.009-0.181-1.73-0.542-2.166c-0.362-0.435-0.949-0.652-1.761-0.652
			c-0.812,0-1.395,0.222-1.75,0.664s-0.532,1.161-0.532,2.154c0,1.01,0.177,1.731,0.532,2.166
			C39.177,20.179,39.76,20.396,40.572,20.396z"/>
		<path fill-rule="evenodd" clip-rule="evenodd" fill="#B22234" d="M53.012,23.331c-1.255,0-2.226-0.369-2.913-1.106
			c-0.687-0.738-1.03-1.813-1.03-3.227v-6.94h3.566v6.731c0,0.621,0.14,1.075,0.421,1.362s0.716,0.431,1.307,0.431
			c0.413,0,0.812-0.089,1.196-0.268s0.708-0.415,0.975-0.711v-7.546H60.1v11.04h-3.322l-0.111-0.932
			C55.677,22.942,54.459,23.331,53.012,23.331z"/>
		<path fill-rule="evenodd" clip-rule="evenodd" fill="#B22234" d="M63.215,12.058h3.322l0.111,0.955
			c0.458-0.342,1.015-0.625,1.672-0.851c0.657-0.225,1.333-0.338,2.026-0.338c1.344,0,2.33,0.342,2.957,1.025
			c0.627,0.683,0.941,1.739,0.941,3.167v7.081h-3.566V16.32c0-0.622-0.129-1.064-0.388-1.328s-0.705-0.396-1.34-0.396
			c-0.384,0-0.775,0.093-1.174,0.279c-0.398,0.187-0.731,0.419-0.997,0.698v7.523h-3.566V12.058z"/>
		<path fill-rule="evenodd" clip-rule="evenodd" fill="#B22234" d="M81.657,23.331c-1.61,0-2.82-0.416-3.633-1.247
			c-0.812-0.83-1.218-2.2-1.218-4.11c0-1.305,0.218-2.419,0.654-3.343c0.436-0.924,1.041-1.622,1.816-2.096s1.672-0.711,2.691-0.711
			c1.02,0,1.92,0.249,2.702,0.746V7.399h3.566v15.698h-3.079l-0.199-0.932c-0.442,0.388-0.93,0.68-1.462,0.873
			C82.964,23.233,82.352,23.331,81.657,23.331z M82.676,20.605c0.782,0,1.447-0.279,1.993-0.839v-4.472
			c-0.502-0.481-1.145-0.722-1.927-0.722c-0.753,0-1.325,0.299-1.716,0.896c-0.392,0.598-0.587,1.44-0.587,2.527
			c0,1.009,0.177,1.696,0.532,2.061C81.325,20.423,81.894,20.605,82.676,20.605z"/>
		<path fill-rule="evenodd" clip-rule="evenodd" fill="#B22234" d="M98.461,23.331c-2.452,0-4.323-0.652-5.615-1.957
			c-1.292-1.304-1.938-3.16-1.938-5.566c0-2.531,0.664-4.487,1.994-5.87c1.328-1.382,3.256-2.072,5.78-2.072
			c1.669,0,3.124,0.217,4.363,0.651v3.215c-1.122-0.435-2.487-0.652-4.098-0.652c-1.535,0-2.654,0.38-3.355,1.142
			c-0.701,0.761-1.052,1.956-1.052,3.587c0,1.475,0.328,2.565,0.985,3.272c0.657,0.706,1.643,1.06,2.957,1.06
			c0.856,0,1.654-0.124,2.393-0.373v-2.841h-3.079v-2.353h6.068v7.43c-0.575,0.389-1.313,0.706-2.215,0.955
			C100.749,23.206,99.687,23.331,98.461,23.331z"/>
		<path fill-rule="evenodd" clip-rule="evenodd" fill="#B22234" d="M109.815,23.331c-1.078,0-1.968-0.3-2.67-0.897
			c-0.701-0.598-1.052-1.455-1.052-2.573c0-1.149,0.373-2.042,1.119-2.679c0.745-0.637,1.834-0.955,3.267-0.955h2.924v-0.256
			c0-0.575-0.181-0.979-0.543-1.212c-0.361-0.232-1.022-0.349-1.982-0.349c-1.196,0-2.37,0.193-3.521,0.582V12.57
			c0.531-0.218,1.174-0.396,1.927-0.536s1.528-0.21,2.326-0.21c1.668,0,2.953,0.357,3.854,1.071c0.9,0.715,1.352,1.817,1.352,3.308
			v6.895h-3.123l-0.178-0.932C112.701,22.942,111.469,23.331,109.815,23.331z M110.944,21.024c1.063,0,1.883-0.356,2.459-1.071
			v-1.561h-2.525c-0.531,0-0.926,0.108-1.185,0.326s-0.388,0.552-0.388,1.002C109.306,20.59,109.852,21.024,110.944,21.024z"/>
		<path fill-rule="evenodd" clip-rule="evenodd" fill="#B22234" d="M119.818,12.058h3.301l0.11,0.979
			c1.063-0.808,2.229-1.212,3.5-1.212c0.679,0,1.222,0.108,1.628,0.326s0.727,0.536,0.963,0.955
			c0.532-0.403,1.104-0.718,1.717-0.943c0.612-0.225,1.311-0.338,2.093-0.338c1.211,0,2.108,0.334,2.691,1.002
			c0.583,0.667,0.875,1.685,0.875,3.051v7.221h-3.521V16.32c0-0.606-0.122-1.045-0.366-1.316c-0.243-0.271-0.638-0.407-1.185-0.407
			c-0.354,0-0.69,0.073-1.008,0.221s-0.587,0.354-0.809,0.617c0.045,0.233,0.066,0.582,0.066,1.048v6.615h-3.322v-6.824
			c0-0.591-0.096-1.018-0.288-1.281c-0.191-0.264-0.539-0.396-1.04-0.396c-0.621,0-1.263,0.333-1.928,1.001v7.5h-3.478V12.058z"/>
		<path fill-rule="evenodd" clip-rule="evenodd" fill="#B22234" d="M145.326,23.331c-1.875,0-3.355-0.489-4.44-1.468
			c-1.086-0.979-1.628-2.407-1.628-4.286c0-1.801,0.469-3.21,1.406-4.228c0.938-1.017,2.3-1.525,4.087-1.525
			c1.639,0,2.923,0.45,3.854,1.352c0.931,0.9,1.396,2.111,1.396,3.633v1.98h-7.442c0.163,0.714,0.532,1.219,1.107,1.514
			c0.576,0.295,1.403,0.442,2.481,0.442c0.575,0,1.162-0.055,1.761-0.163c0.598-0.108,1.096-0.248,1.495-0.419v2.445
			C148.397,23.09,147.039,23.331,145.326,23.331z M146.898,16.623v-0.489c0-1.181-0.679-1.771-2.037-1.771
			c-0.842,0-1.437,0.179-1.783,0.536c-0.347,0.356-0.521,0.932-0.521,1.724H146.898z"/>
	</g>
</g>
</svg>
