<?xml version="1.0" encoding="UTF-8" standalone="no"?><!DOCTYPE svg PUBLIC "-//W3C//DTD SVG 1.1//EN" "http://www.w3.org/Graphics/SVG/1.1/DTD/svg11.dtd"><svg width="100%" height="100%" viewBox="0 0 4800 4800" version="1.1" xmlns="http://www.w3.org/2000/svg" xmlns:xlink="http://www.w3.org/1999/xlink" xml:space="preserve" xmlns:serif="http://www.serif.com/" style="fill-rule:evenodd;clip-rule:evenodd;stroke-linejoin:round;stroke-miterlimit:2;"><g><path d="M2446.75,0c116.656,2.438 228.406,12.125 335.188,29.094c359.718,57.156 689.999,189.437 990.906,396.875c188.093,129.687 353.718,282.281 496.843,457.75c298.813,366.312 484.063,810.718 530.313,1281.75l0,476.343c-2.344,25.969 -5.219,51.876 -8.656,77.719c-47.782,357.563 -168.75,686.625 -362.875,987.219c-210.188,325.469 -495.657,595.406 -831.469,787.156c-271.594,155.094 -563.281,253.032 -875.031,293.844c-33.469,4.375 -67.032,8.469 -100.625,12.25l-431.125,0c-387.125,-36.344 -744.157,-157.5 -1071.06,-363.5c-169,-106.531 -324.562,-235.469 -460.687,-379.531c-227.438,-240.625 -398.469,-516.375 -513.094,-827.282c-93,-252.281 -141.125,-521.531 -145.375,-790.624l0,-77.719c3.313,-156.907 20.094,-306.782 50.375,-449.657c71.656,-338.312 207.75,-644.75 408.313,-919.343c193.156,-264.469 428.875,-480.594 707.218,-648.438c219.375,-132.281 455.25,-227.312 707.594,-285.031c36.938,-8.469 71.75,-14.438 110.188,-21.781c18.062,-3.469 34.437,-6.313 49.124,-8.532c107.844,-16.281 216.313,-25.812 325.438,-28.562l88.5,-0Zm2197.72,2365.33c-21.566,-1235.96 -1041.32,-2220.43 -2277.63,-2198.84c-1236.31,21.566 -2221.06,1041.03 -2199.5,2276.98c21.565,1235.96 1041.32,2220.43 2277.63,2198.83c1236.31,-21.565 2221.06,-1041.03 2199.5,-2276.98Z" style="fill:#c71e22;fill-rule:nonzero;"/><path d="M4644.47,2365.33c21.559,1235.95 -963.191,2255.42 -2199.5,2276.98c-1236.31,21.591 -2256.06,-962.878 -2277.63,-2198.83c-21.56,-1235.95 963.19,-2255.42 2199.5,-2276.98c1236.31,-21.591 2256.06,962.878 2277.63,2198.84Zm-2189.5,-687.988l-0,1799.09c-0,1.532 1.219,2.75 2.719,2.75l626.656,0c0.969,0 1.781,-0.812 1.781,-1.812l0,-564.156c0,-0.813 0.969,-1.219 1.563,-0.688c0.281,0.25 0.593,0.656 0.875,1.219c97.156,187.969 194.312,375.719 291.468,563.25c0.782,1.469 1.969,2.187 3.625,2.187l759.25,0c1.375,0 2.219,-1.531 1.469,-2.718l-512.656,-791.907c-0.594,-0.937 -0.406,-1.593 0.625,-2c5.594,-2.187 15.406,-5.75 29.406,-10.656c162.094,-57 276.313,-189.812 320.469,-353.906c25.281,-94 30.594,-195.719 18.469,-295.75c-19.657,-161.938 -98.219,-309.844 -226.688,-410.875c-154.937,-121.906 -353.531,-168.719 -548.219,-168.75c-159.843,-0 -610.375,-0 -1351.53,0.031c-1.687,0 -3.187,0.969 -3.906,2.469l-257.156,545.5c-0.5,1.031 -1.938,1.031 -2.438,-0l-256.906,-545.125c-0.813,-1.75 -2.594,-2.844 -4.531,-2.844l-714.25,0c-0.75,0 -1.219,0.813 -0.844,1.438l658.187,1124.5c1.532,2.625 2.344,5.656 2.344,8.718l0,899.907c0,1.093 0.875,1.968 1.969,1.968l631.25,0c0.687,0 1.25,-0.562 1.25,-1.281l-0,-900.812c-0,-3 0.812,-5.907 2.312,-8.469l522.094,-891.625c0.375,-0.625 1.344,-0.375 1.344,0.344Z" style="fill:#fff;fill-rule:nonzero;"/><path d="M2454.97,1677.34c-0,-0.719 -0.969,-0.969 -1.344,-0.344l-522.094,891.625c-1.5,2.563 -2.312,5.469 -2.312,8.469l-0,900.812c-0,0.719 -0.563,1.281 -1.25,1.281l-631.25,0c-1.094,0 -1.969,-0.874 -1.969,-1.968l0,-899.907c0,-3.062 -0.813,-6.093 -2.344,-8.718l-658.187,-1124.5c-0.375,-0.625 0.094,-1.438 0.844,-1.438l714.25,0c1.937,0 3.718,1.094 4.531,2.844l256.906,545.125c0.5,1.031 1.937,1.031 2.438,0l257.156,-545.5c0.718,-1.5 2.218,-2.469 3.906,-2.469c741.156,-0.031 1191.69,-0.031 1351.53,-0.031c194.688,0.031 393.281,46.844 548.219,168.75c128.469,101.031 207.031,248.937 226.688,410.875c12.124,100.031 6.812,201.75 -18.469,295.75c-44.157,164.094 -158.375,296.906 -320.469,353.906c-14,4.907 -23.812,8.469 -29.406,10.657c-1.032,0.406 -1.219,1.062 -0.625,1.999l512.656,791.907c0.75,1.187 -0.094,2.718 -1.469,2.718l-759.25,0c-1.656,0 -2.844,-0.718 -3.625,-2.187c-97.156,-187.531 -194.312,-375.281 -291.468,-563.25c-0.282,-0.563 -0.594,-0.969 -0.876,-1.219c-0.593,-0.531 -1.562,-0.125 -1.562,0.688l0,564.156c0,1 -0.813,1.812 -1.781,1.812l-626.657,0c-1.499,0 -2.718,-1.218 -2.718,-2.749l-0,-1799.09Zm809,637.281c63.844,-24.406 95.844,-81.531 100.312,-147.438c2.875,-42.031 -0.625,-83.874 -20.969,-120.593c-39.125,-70.5 -127.281,-85.844 -200.812,-85.813c-11.406,0.032 -29.625,0.125 -54.656,0.344c-0.938,0 -1.719,0.781 -1.719,1.719l0,368.406c0,1 0.813,1.813 1.813,1.844c62.562,1.125 120.124,2.937 176.031,-18.469Z" style="fill:#c71e22;fill-rule:nonzero;"/><path d="M3364.28,2167.19c-4.468,65.906 -36.468,123.031 -100.312,147.437c-55.907,21.406 -113.469,19.594 -176.032,18.469c-0.999,-0.032 -1.812,-0.844 -1.812,-1.844l0,-368.406c0,-0.938 0.781,-1.719 1.719,-1.719c25.031,-0.219 43.25,-0.313 54.656,-0.344c73.531,-0.031 161.687,15.313 200.812,85.813c20.344,36.718 23.844,78.562 20.969,120.593Z" style="fill:#fff;fill-rule:nonzero;"/></g></svg>