<?xml version="1.0" encoding="utf-8"?>
<!-- Generator: Adobe Illustrator 26.5.3, SVG Export Plug-In . SVG Version: 6.00 Build 0)  -->
<svg version="1.1" id="Layer_1" xmlns="http://www.w3.org/2000/svg" xmlns:xlink="http://www.w3.org/1999/xlink" x="0px" y="0px"
	 viewBox="0 0 64 64" style="enable-background:new 0 0 64 64;" xml:space="preserve">
<style type="text/css">
	.st0{opacity:0.7;}
	.st1{fill:#B90003;stroke:#FFFFFF;stroke-width:0.4717;stroke-miterlimit:10;}
	.st2{fill:#B22234;stroke:#FFFFFF;stroke-width:0.4717;stroke-miterlimit:10;}
	.st3{fill:#FFFFFF;stroke:#FFFFFF;stroke-width:0.4717;stroke-miterlimit:10;}
</style>
<g class="st0">
	<path class="st1" d="M54.63,35.48c0-2.41-0.38-4.78-1.14-7.04c-0.73-2.19-1.8-4.25-3.18-6.12c-1.07-1.44-2.3-2.75-3.67-3.9V3.54
		c0-0.93-0.76-1.69-1.69-1.69H19.88c-0.93,0-1.69,0.76-1.69,1.69v14.88c-1.37,1.15-2.6,2.45-3.67,3.9
		c-1.38,1.87-2.45,3.93-3.18,6.12c-0.76,2.27-1.14,4.63-1.14,7.04c0,9.9,6.51,18.31,15.47,21.17l0.07,0.23
		c0.42,1.41,1.3,2.67,2.48,3.56c1.22,0.92,2.67,1.41,4.2,1.41c1.53,0,2.98-0.49,4.2-1.41c1.18-0.89,2.06-2.16,2.48-3.56l0.07-0.23
		C48.12,53.79,54.63,45.38,54.63,35.48z"/>
	<path class="st2" d="M18.89,3.54c0-0.54,0.44-0.98,0.98-0.98h25.07c0.54,0,0.98,0.44,0.98,0.98v13.87c-1.87-1.4-3.92-2.5-6.12-3.26
		c-0.41-1.58-1.33-3-2.61-4.03c-1.35-1.09-3.05-1.69-4.78-1.69c-1.73,0-3.43,0.6-4.79,1.69c-1.28,1.03-2.2,2.46-2.61,4.03
		c-2.2,0.76-4.25,1.86-6.12,3.26V3.54z"/>
	<path class="st2" d="M32.41,61.15c-2.52,0-4.81-1.55-5.78-3.84c1.88,0.5,3.82,0.75,5.78,0.75s3.9-0.25,5.78-0.75
		C37.22,59.6,34.94,61.15,32.41,61.15z"/>
	<path class="st1" d="M32.41,57C20.55,57,10.9,47.34,10.9,35.48c0-9.32,5.96-17.54,14.82-20.45l0.2-0.06l0.04-0.2
		c0.62-3.06,3.33-5.27,6.45-5.27c3.12,0,5.84,2.22,6.45,5.27l0.04,0.2l0.2,0.06c8.87,2.91,14.82,11.13,14.82,20.45
		C53.93,47.34,44.27,57,32.41,57z"/>
	<path class="st1" d="M46.68,25.47c-1-1.42-2.2-2.68-3.57-3.74c-1.38-1.08-2.91-1.94-4.54-2.55l-0.28-0.11l-0.15,0.26
		c-1.17,2.06-3.36,3.34-5.73,3.34c-2.36,0-4.56-1.28-5.73-3.34l-0.15-0.26l-0.28,0.11c-1.63,0.62-3.16,1.48-4.54,2.55
		c-1.37,1.07-2.57,2.33-3.57,3.74c-2.07,2.94-3.17,6.41-3.17,10.01c0,9.61,7.82,17.43,17.43,17.43c9.61,0,17.43-7.82,17.43-17.43
		C49.85,31.88,48.75,28.41,46.68,25.47z"/>
	<path class="st1" d="M18.89,26.25c1.8-2.63,4.28-4.65,7.2-5.88c0.66,0.97,1.54,1.78,2.56,2.36c1.14,0.65,2.44,0.99,3.76,0.99
		c1.32,0,2.62-0.34,3.76-0.99c1.02-0.58,1.9-1.39,2.56-2.36c2.92,1.22,5.4,3.25,7.2,5.88v2.36c0,0.54-0.44,0.98-0.98,0.98H19.88
		c-0.54,0-0.98-0.44-0.98-0.98V26.25z"/>
	<path class="st2" d="M32.41,51.86c-1.7,0-3.37-0.26-4.98-0.77c1.18-1.55,3.01-2.46,4.98-2.46c1.97,0,3.79,0.91,4.98,2.46
		C35.78,51.6,34.11,51.86,32.41,51.86z"/>
	<path class="st3" d="M38.29,51.14l-0.05-0.07c-1.29-1.98-3.47-3.16-5.83-3.16c-2.36,0-4.54,1.18-5.83,3.16l-0.05,0.07
		c-6.33-2.38-10.85-8.51-10.85-15.66c0-3.15,0.9-6.17,2.5-8.76v1.89c0,0.93,0.76,1.69,1.69,1.69h25.07c0.93,0,1.69-0.76,1.69-1.69
		v-1.89c1.6,2.59,2.5,5.61,2.5,8.76C49.14,42.64,44.62,48.76,38.29,51.14z"/>
	<path class="st3" d="M32.41,21.52c1.81,0,3.49-0.9,4.51-2.4c0.11-0.16,0.21-0.33,0.3-0.5c0-0.01,0.01-0.02,0.01-0.03l0.01-0.01
		c0.02-0.04,0.04-0.09,0.07-0.13c0.01-0.01,0.01-0.02,0.02-0.04l0.01-0.02c0.02-0.04,0.04-0.08,0.05-0.12
		c0.01-0.02,0.02-0.04,0.03-0.06c0.02-0.04,0.03-0.08,0.05-0.12c0.01-0.02,0.02-0.04,0.02-0.06c0.02-0.04,0.03-0.08,0.04-0.12
		l0.01-0.01c0.01-0.01,0.01-0.03,0.02-0.04c0.02-0.04,0.03-0.09,0.04-0.13l0-0.02c0-0.01,0.01-0.02,0.01-0.03
		c0.04-0.12,0.07-0.25,0.1-0.37c0-0.01,0.01-0.02,0.01-0.04l0-0.02c0.01-0.05,0.02-0.09,0.03-0.14c0-0.02,0.01-0.03,0.01-0.05
		l0-0.02c0.01-0.04,0.01-0.08,0.02-0.12c0-0.02,0.01-0.05,0.01-0.07c0.01-0.04,0.01-0.08,0.02-0.12c0-0.03,0.01-0.05,0.01-0.08
		c0-0.04,0.01-0.08,0.01-0.12l0-0.02c0-0.02,0-0.04,0-0.06c0-0.04,0.01-0.09,0.01-0.13l0-0.02c0-0.01,0-0.03,0-0.04
		c0-0.07,0-0.14,0-0.2c0-0.06,0-0.12,0-0.19l0-0.04c0-0.07-0.01-0.13-0.01-0.19l0-0.03c0-0.06-0.01-0.11-0.02-0.17l0-0.04
		c-0.01-0.06-0.02-0.13-0.03-0.19l-0.01-0.03c-0.01-0.07-0.02-0.13-0.03-0.18l0-0.01c-0.01-0.06-0.03-0.13-0.04-0.2l0-0.02
		c-0.03-0.13-0.07-0.27-0.11-0.39c-0.02-0.07-0.04-0.13-0.07-0.2l-0.01-0.03c-0.03-0.07-0.05-0.13-0.07-0.19
		c-0.85-2.04-2.82-3.35-5.03-3.35c-2.2,0-4.18,1.32-5.03,3.35c-0.28,0.66-0.42,1.37-0.42,2.09c0,1.09,0.32,2.15,0.94,3.05
		C28.92,20.63,30.61,21.52,32.41,21.52z"/>
	<path class="st3" d="M35.97,18.63c-0.82,1.15-2.16,1.83-3.56,1.83c-1.41,0-2.74-0.68-3.56-1.83l0,0c-0.54-0.75-0.82-1.63-0.82-2.55
		c0-0.66,0.14-1.3,0.43-1.89c0.73-1.51,2.28-2.49,3.96-2.49c1.68,0,3.23,0.98,3.96,2.49c0.29,0.59,0.43,1.23,0.43,1.89
		C36.8,17,36.51,17.88,35.97,18.63z"/>
</g>
</svg>
