<?xml version="1.0" encoding="utf-8"?>
<!-- Generator: Adobe Illustrator 26.5.3, SVG Export Plug-In . SVG Version: 6.00 Build 0)  -->
<svg version="1.1" id="Layer_1" xmlns="http://www.w3.org/2000/svg" xmlns:xlink="http://www.w3.org/1999/xlink" x="0px" y="0px"
	 viewBox="0 0 512 512" style="enable-background:new 0 0 512 512;" xml:space="preserve">
<style type="text/css">
	.st0{opacity:0.88;}
	.st1{fill:#0A3161;stroke:#FFFFFF;stroke-width:3.9312;stroke-miterlimit:10;}
	.st2{fill:#FFFFFF;stroke:#FFFFFF;stroke-width:3.9312;stroke-miterlimit:10;}
</style>
<g class="st0">
	<path class="st1" d="M441.16,286.24c0-20.06-3.21-39.81-9.53-58.69c-6.11-18.25-15.03-35.4-26.51-50.97
		c-8.88-12.04-19.13-22.92-30.58-32.48V20.08c0-7.76-6.32-14.08-14.08-14.08H151.54c-7.76,0-14.08,6.32-14.08,14.08V144.1
		c-11.44,9.56-21.7,20.44-30.58,32.48c-11.48,15.57-20.4,32.72-26.51,50.97c-6.32,18.88-9.53,38.62-9.53,58.69
		c0,82.51,54.25,152.59,128.96,176.44l0.56,1.89c3.5,11.73,10.83,22.27,20.64,29.7c10.14,7.67,22.25,11.73,35,11.73
		c12.75,0,24.85-4.06,35-11.73c9.81-7.42,17.14-17.97,20.65-29.7l0.56-1.89C386.91,438.83,441.16,368.75,441.16,286.24z"/>
	<path class="st1" d="M143.34,20.08c0-4.52,3.68-8.2,8.2-8.2h208.92c4.52,0,8.2,3.68,8.2,8.2V135.7
		c-15.56-11.68-32.69-20.81-51.02-27.19c-3.42-13.14-11.11-25.02-21.78-33.6c-11.26-9.06-25.42-14.06-39.87-14.06
		c-14.45,0-28.61,4.99-39.88,14.06c-10.66,8.58-18.35,20.47-21.78,33.61c-18.32,6.37-35.45,15.5-51.01,27.18V20.08z"/>
	<path class="st1" d="M256,500.12c-21.04,0-40.11-12.92-48.14-32.02c15.65,4.14,31.81,6.24,48.14,6.24s32.49-2.1,48.14-6.24
		C296.1,487.2,277.04,500.12,256,500.12z"/>
	<path class="st1" d="M256,465.52c-98.86,0-179.29-80.43-179.29-179.29c0-77.7,49.64-146.18,123.54-170.41l1.63-0.53l0.34-1.68
		c5.14-25.46,27.76-43.95,53.79-43.95c26.02,0,48.64,18.48,53.78,43.95l0.34,1.68l1.63,0.53c73.89,24.23,123.54,92.72,123.54,170.41
		C435.29,385.1,354.86,465.52,256,465.52z"/>
	<path class="st1" d="M374.87,202.8c-8.32-11.81-18.31-22.31-29.72-31.2c-11.51-8.97-24.24-16.13-37.82-21.28l-2.35-0.89l-1.24,2.19
		c-9.75,17.15-28.04,27.8-47.74,27.8c-19.7,0-37.99-10.65-47.74-27.8l-1.24-2.19l-2.35,0.89c-13.58,5.15-26.31,12.31-37.82,21.28
		c-11.4,8.89-21.4,19.38-29.72,31.2c-17.27,24.54-26.41,53.39-26.41,83.44c0,80.11,65.17,145.28,145.28,145.28
		c80.11,0,145.28-65.17,145.28-145.28C401.28,256.2,392.15,227.34,374.87,202.8z"/>
	<path class="st1" d="M143.34,209.32c14.99-21.89,35.68-38.77,60.01-48.97c5.51,8.07,12.84,14.83,21.34,19.65
		c9.51,5.39,20.34,8.24,31.32,8.24c10.97,0,21.8-2.85,31.32-8.24c8.5-4.82,15.83-11.58,21.34-19.65
		c24.33,10.2,45.02,27.08,60.01,48.97v19.68c0,4.52-3.68,8.2-8.2,8.2H151.54c-4.52,0-8.2-3.68-8.2-8.2V209.32z"/>
	<path class="st1" d="M256,422.7c-14.17,0-28.1-2.16-41.47-6.44c9.85-12.9,25.09-20.5,41.47-20.5c16.38,0,31.61,7.6,41.47,20.5
		C284.1,420.53,270.17,422.7,256,422.7z"/>
	<path class="st2" d="M304.98,416.75l-0.38-0.57c-10.78-16.47-28.95-26.3-48.61-26.3c-19.66,0-37.83,9.83-48.61,26.3l-0.38,0.57
		c-52.77-19.87-90.42-70.88-90.42-130.52c0-26.26,7.54-51.45,20.86-73.01v15.78c0,7.76,6.32,14.08,14.08,14.08h208.92
		c7.77,0,14.08-6.32,14.08-14.08v-15.78c13.32,21.57,20.86,46.75,20.86,73.01C395.4,345.87,357.76,396.88,304.98,416.75z"/>
	<path class="st2" d="M256,169.91c15.05,0,29.1-7.46,37.57-19.97c0.9-1.33,1.75-2.74,2.51-4.17c0.04-0.07,0.07-0.14,0.11-0.21
		l0.06-0.11c0.19-0.36,0.37-0.71,0.54-1.07c0.05-0.1,0.1-0.2,0.15-0.31l0.07-0.14c0.15-0.33,0.31-0.65,0.45-0.98
		c0.07-0.16,0.15-0.33,0.22-0.5c0.14-0.32,0.27-0.65,0.41-0.97c0.07-0.17,0.14-0.34,0.2-0.51c0.13-0.33,0.25-0.67,0.37-1l0.04-0.12
		c0.04-0.12,0.09-0.24,0.13-0.37c0.13-0.37,0.25-0.74,0.37-1.12l0.04-0.13c0.03-0.09,0.06-0.18,0.08-0.26
		c0.32-1.02,0.6-2.06,0.84-3.1c0.02-0.1,0.04-0.2,0.07-0.29l0.03-0.14c0.08-0.38,0.16-0.75,0.24-1.14c0.03-0.14,0.05-0.28,0.08-0.42
		l0.03-0.14c0.06-0.34,0.12-0.68,0.18-1.02c0.03-0.21,0.06-0.41,0.09-0.62c0.05-0.33,0.09-0.66,0.13-0.99
		c0.03-0.21,0.05-0.43,0.08-0.64c0.04-0.34,0.07-0.67,0.1-1.01l0.01-0.15c0.01-0.16,0.03-0.31,0.04-0.47
		c0.03-0.37,0.05-0.74,0.06-1.11l0.01-0.17c0.01-0.12,0.01-0.24,0.02-0.37c0.02-0.59,0.03-1.13,0.03-1.65c0-0.49-0.01-1-0.03-1.62
		l-0.01-0.35c-0.02-0.56-0.05-1.07-0.09-1.56l-0.02-0.22c-0.04-0.47-0.09-0.95-0.14-1.43l-0.03-0.3c-0.06-0.53-0.14-1.05-0.21-1.55
		l-0.04-0.25c-0.09-0.54-0.18-1.04-0.27-1.52l-0.01-0.08c-0.11-0.53-0.23-1.08-0.36-1.63l-0.03-0.13c-0.27-1.11-0.58-2.21-0.92-3.26
		c-0.17-0.55-0.36-1.1-0.58-1.7l-0.09-0.24c-0.22-0.59-0.43-1.11-0.62-1.59C290.8,90.15,274.36,79.18,256,79.18
		c-18.36,0-34.8,10.97-41.88,27.94c-2.31,5.53-3.48,11.4-3.48,17.43c0,9.1,2.69,17.88,7.79,25.39
		C226.9,162.44,240.95,169.91,256,169.91z"/>
	<path class="st2" d="M285.68,145.83c-6.86,9.56-17.96,15.26-29.68,15.26c-11.72,0-22.82-5.7-29.68-15.26l0,0
		c-4.49-6.23-6.86-13.59-6.86-21.28c0-5.52,1.2-10.82,3.58-15.76C229.1,96.16,242.04,88,256,88c13.96,0,26.9,8.16,32.96,20.78
		c2.38,4.94,3.58,10.24,3.58,15.76C292.54,132.23,290.17,139.59,285.68,145.83z"/>
</g>
</svg>
