<?xml version="1.0" encoding="utf-8"?>
<!-- Generator: Adobe Illustrator 26.5.3, SVG Export Plug-In . SVG Version: 6.00 Build 0)  -->
<svg version="1.1" id="Layer_1" xmlns="http://www.w3.org/2000/svg" xmlns:xlink="http://www.w3.org/1999/xlink" x="0px" y="0px"
	 viewBox="0 0 1200 600" style="enable-background:new 0 0 1200 600;" xml:space="preserve">
<style type="text/css">
	.st0{fill-rule:evenodd;clip-rule:evenodd;fill:#B22234;}
	.st1{fill:#0A3161;stroke:#FFFFFF;stroke-width:2.0972;stroke-miterlimit:10;}
	.st2{fill:#FFFFFF;stroke:#FFFFFF;stroke-width:2.0972;stroke-miterlimit:10;}
</style>
<g>
	<path class="st0" d="M107.86,497.69c-19.24,0-33.92-5.12-44.06-15.35c-10.14-10.24-15.21-24.8-15.21-43.68
		c0-19.86,5.21-35.22,15.64-46.06c10.43-10.85,25.55-16.27,45.37-16.27c13.09,0,24.51,1.71,34.24,5.12v25.22
		c-8.81-3.41-19.53-5.12-32.16-5.12c-12.05,0-20.83,2.99-26.33,8.96c-5.5,5.97-8.26,15.35-8.26,28.15c0,11.58,2.58,20.14,7.73,25.68
		c5.16,5.54,12.89,8.32,23.2,8.32c6.72,0,12.98-0.97,18.77-2.92v-22.3h-24.16v-18.46h47.62v58.31c-4.52,3.05-10.31,5.54-17.38,7.49
		C125.82,496.72,117.48,497.69,107.86,497.69z"/>
	<path class="st0" d="M171.24,409.23h26.59l0.87,8.04c3.71-2.31,8.23-4.42,13.56-6.31c5.33-1.89,10.6-3.08,15.82-3.56v22.12
		c-4.87,0.61-10.08,1.68-15.64,3.2c-5.56,1.52-9.96,3.14-13.21,4.84v58.31h-27.98V409.23z"/>
	<path class="st0" d="M288.5,497.69c-30.94,0-46.41-15.05-46.41-45.15c0-14.62,3.85-25.8,11.56-33.54
		c7.71-7.74,19.32-11.61,34.85-11.61c15.64,0,27.32,3.84,35.02,11.52c7.7,7.68,11.56,18.89,11.56,33.63
		C335.08,482.64,319.56,497.69,288.5,497.69z M288.5,474.66c6.49,0,11.12-1.71,13.91-5.12c2.78-3.41,4.17-9.08,4.17-17
		c0-7.92-1.42-13.59-4.26-17c-2.84-3.41-7.44-5.12-13.82-5.12c-6.37,0-10.95,1.74-13.73,5.21c-2.78,3.47-4.17,9.11-4.17,16.91
		c0,7.92,1.39,13.59,4.17,17C277.55,472.96,282.13,474.66,288.5,474.66z"/>
	<path class="st0" d="M386.12,497.69c-9.85,0-17.47-2.89-22.86-8.68c-5.39-5.79-8.08-14.23-8.08-25.31v-54.47h27.98v52.82
		c0,4.87,1.1,8.44,3.3,10.69c2.2,2.25,5.62,3.38,10.26,3.38c3.24,0,6.37-0.7,9.39-2.1c3.01-1.4,5.56-3.26,7.65-5.57v-59.22h27.98
		v86.64h-26.07l-0.87-7.31C407.04,494.65,397.48,497.69,386.12,497.69z"/>
	<path class="st0" d="M466.19,409.23h26.07l0.87,7.49c3.59-2.68,7.97-4.9,13.12-6.67c5.16-1.77,10.46-2.65,15.9-2.65
		c10.55,0,18.28,2.68,23.2,8.04c4.92,5.36,7.39,13.65,7.39,24.86v55.57h-27.98v-53.19c0-4.87-1.01-8.35-3.04-10.42
		c-2.03-2.07-5.53-3.11-10.51-3.11c-3.01,0-6.08,0.73-9.21,2.19c-3.13,1.46-5.74,3.29-7.82,5.48v59.04h-27.98V409.23z"/>
	<path class="st0" d="M610.91,497.69c-12.63,0-22.13-3.26-28.51-9.78c-6.37-6.52-9.56-17.27-9.56-32.26
		c0-10.24,1.71-18.98,5.13-26.23c3.42-7.25,8.17-12.73,14.25-16.45c6.08-3.72,13.12-5.58,21.12-5.58c8,0,15.06,1.95,21.21,5.85
		v-40.58h27.98v123.19h-24.16l-1.56-7.31c-3.48,3.05-7.3,5.33-11.47,6.85C621.17,496.93,616.36,497.69,610.91,497.69z
		 M618.91,476.31c6.14,0,11.36-2.19,15.64-6.58v-35.09c-3.94-3.78-8.98-5.67-15.12-5.67c-5.91,0-10.4,2.35-13.47,7.04
		c-3.07,4.69-4.61,11.3-4.61,19.83c0,7.92,1.39,13.31,4.17,16.18C608.31,474.88,612.77,476.31,618.91,476.31z"/>
	<path class="st0" d="M742.77,497.69c-19.24,0-33.92-5.12-44.06-15.35c-10.14-10.24-15.21-24.8-15.21-43.68
		c0-19.86,5.21-35.22,15.64-46.06c10.43-10.85,25.55-16.27,45.37-16.27c13.09,0,24.51,1.71,34.24,5.12v25.22
		c-8.81-3.41-19.52-5.12-32.15-5.12c-12.05,0-20.83,2.99-26.33,8.96c-5.5,5.97-8.26,15.35-8.26,28.15c0,11.58,2.58,20.14,7.74,25.68
		c5.16,5.54,12.89,8.32,23.2,8.32c6.72,0,12.98-0.97,18.77-2.92v-22.3h-24.16v-18.46h47.62v58.31c-4.52,3.05-10.31,5.54-17.38,7.49
		C760.73,496.72,752.39,497.69,742.77,497.69z"/>
	<path class="st0" d="M831.88,497.69c-8.46,0-15.44-2.35-20.95-7.04c-5.5-4.69-8.26-11.42-8.26-20.2c0-9.02,2.93-16.02,8.78-21.02
		c5.85-5,14.39-7.49,25.64-7.49h22.94v-2.01c0-4.51-1.42-7.68-4.26-9.51c-2.84-1.83-8.02-2.74-15.56-2.74
		c-9.39,0-18.6,1.52-27.64,4.57v-19.01c4.17-1.71,9.21-3.11,15.12-4.2c5.91-1.1,11.99-1.65,18.25-1.65c13.09,0,23.18,2.8,30.24,8.41
		c7.07,5.6,10.6,14.26,10.6,25.95v54.1h-24.51l-1.39-7.31C854.53,494.65,844.85,497.69,831.88,497.69z M840.74,479.6
		c8.35,0,14.78-2.8,19.29-8.41v-12.25h-19.82c-4.17,0-7.27,0.85-9.3,2.56c-2.03,1.71-3.04,4.33-3.04,7.86
		C827.88,476.19,832.17,479.6,840.74,479.6z"/>
	<path class="st0" d="M910.38,409.23h25.9l0.87,7.68c8.34-6.34,17.5-9.51,27.46-9.51c5.33,0,9.59,0.85,12.78,2.56
		c3.19,1.71,5.71,4.2,7.56,7.49c4.17-3.17,8.66-5.63,13.47-7.4c4.81-1.77,10.28-2.65,16.43-2.65c9.5,0,16.54,2.62,21.12,7.86
		c4.58,5.24,6.87,13.22,6.87,23.94v56.66h-27.63v-53.19c0-4.75-0.96-8.19-2.87-10.33c-1.91-2.13-5.01-3.2-9.3-3.2
		c-2.78,0-5.42,0.58-7.91,1.74c-2.49,1.16-4.61,2.77-6.34,4.84c0.35,1.83,0.52,4.57,0.52,8.23v51.91h-26.07v-53.55
		c0-4.63-0.75-7.98-2.26-10.05c-1.51-2.07-4.23-3.11-8.17-3.11c-4.87,0-9.91,2.62-15.12,7.86v58.86h-27.29V409.23z"/>
	<path class="st0" d="M1110.55,497.69c-14.72,0-26.33-3.84-34.85-11.52c-8.52-7.68-12.78-18.89-12.78-33.63
		c0-14.13,3.68-25.19,11.04-33.17c7.36-7.98,18.05-11.97,32.07-11.97c12.86,0,22.94,3.53,30.24,10.6
		c7.3,7.07,10.95,16.57,10.95,28.51v15.54h-58.4c1.27,5.61,4.17,9.57,8.69,11.88c4.52,2.31,11.01,3.47,19.47,3.47
		c4.52,0,9.12-0.43,13.82-1.28c4.69-0.85,8.6-1.95,11.73-3.29v19.19C1134.65,495.8,1123.99,497.69,1110.55,497.69z M1122.89,445.05
		v-3.84c0-9.26-5.33-13.89-15.99-13.89c-6.6,0-11.27,1.4-13.99,4.2c-2.72,2.8-4.08,7.31-4.08,13.53H1122.89z"/>
</g>
<g>
	<path class="st1" d="M696.69,231.09c0-10.7-1.71-21.24-5.08-31.31c-3.26-9.74-8.02-18.89-14.15-27.19
		c-4.74-6.42-10.21-12.23-16.31-17.33V89.1c0-4.14-3.37-7.51-7.51-7.51H542.18c-4.14,0-7.51,3.37-7.51,7.51v66.16
		c-6.11,5.1-11.58,10.9-16.31,17.33c-6.12,8.31-10.88,17.45-14.14,27.19c-3.37,10.07-5.08,20.6-5.08,31.31
		c0,44.02,28.94,81.4,68.8,94.13l0.3,1.01c1.87,6.26,5.78,11.88,11.01,15.84c5.41,4.09,11.87,6.26,18.67,6.26
		c6.8,0,13.26-2.16,18.67-6.26c5.23-3.96,9.15-9.59,11.01-15.84l0.3-1.01C667.75,312.49,696.69,275.11,696.69,231.09z"/>
	<path class="st1" d="M537.8,89.1c0-2.41,1.96-4.38,4.38-4.38h111.46c2.41,0,4.38,1.96,4.38,4.38v61.68
		c-8.3-6.23-17.44-11.1-27.22-14.5c-1.83-7.01-5.93-13.35-11.62-17.93c-6.01-4.84-13.56-7.5-21.27-7.5s-15.26,2.66-21.27,7.5
		c-5.69,4.58-9.79,10.92-11.62,17.93c-9.77,3.4-18.91,8.27-27.21,14.5V89.1z"/>
	<path class="st1" d="M597.91,345.19c-11.22,0-21.4-6.89-25.68-17.08c8.35,2.21,16.97,3.33,25.68,3.33c8.71,0,17.33-1.12,25.68-3.33
		C619.3,338.3,609.13,345.19,597.91,345.19z"/>
	<path class="st1" d="M597.91,326.74c-52.74,0-95.64-42.91-95.64-95.64c0-41.45,26.48-77.98,65.9-90.91l0.87-0.28l0.18-0.89
		c2.74-13.58,14.81-23.44,28.69-23.44c13.88,0,25.95,9.86,28.69,23.44l0.18,0.9l0.87,0.28c39.42,12.93,65.9,49.46,65.9,90.91
		C693.55,283.83,650.64,326.74,597.91,326.74z"/>
	<path class="st1" d="M661.32,186.58c-4.44-6.3-9.77-11.9-15.85-16.64c-6.14-4.79-12.93-8.61-20.18-11.35l-1.26-0.48l-0.66,1.17
		c-5.2,9.15-14.96,14.83-25.47,14.83c-10.51,0-20.27-5.68-25.47-14.83l-0.66-1.17l-1.26,0.48c-7.25,2.75-14.03,6.57-20.18,11.35
		c-6.08,4.74-11.42,10.34-15.85,16.64c-9.22,13.09-14.09,28.48-14.09,44.51c0,42.74,34.77,77.5,77.5,77.5
		c42.74,0,77.5-34.77,77.5-77.5C675.41,215.06,670.54,199.67,661.32,186.58z"/>
	<path class="st1" d="M537.8,190.06c8-11.68,19.04-20.69,32.01-26.13c2.94,4.3,6.85,7.91,11.38,10.48c5.07,2.88,10.85,4.4,16.71,4.4
		c5.85,0,11.63-1.52,16.71-4.4c4.53-2.57,8.45-6.18,11.38-10.48c12.98,5.44,24.02,14.45,32.01,26.13v10.5
		c0,2.41-1.96,4.38-4.38,4.38H542.18c-2.41,0-4.38-1.96-4.38-4.38V190.06z"/>
	<path class="st1" d="M597.91,303.89c-7.56,0-14.99-1.15-22.12-3.43c5.26-6.88,13.38-10.93,22.12-10.93
		c8.74,0,16.86,4.05,22.12,10.93C612.89,302.73,605.46,303.89,597.91,303.89z"/>
	<path class="st2" d="M624.04,300.72l-0.2-0.31c-5.75-8.78-15.45-14.03-25.93-14.03c-10.49,0-20.18,5.24-25.93,14.03l-0.2,0.31
		c-28.15-10.6-48.24-37.81-48.24-69.63c0-14.01,4.02-27.45,11.13-38.95v8.42c0,4.14,3.37,7.51,7.51,7.51h111.46
		c4.14,0,7.51-3.37,7.51-7.51v-8.42c7.1,11.51,11.13,24.94,11.13,38.95C672.27,262.91,652.19,290.12,624.04,300.72z"/>
	<path class="st2" d="M597.91,169.03c8.03,0,15.52-3.98,20.04-10.65c0.48-0.71,0.93-1.46,1.34-2.23c0.02-0.04,0.04-0.08,0.06-0.11
		l0.03-0.06c0.1-0.19,0.2-0.38,0.29-0.57c0.03-0.05,0.05-0.11,0.08-0.16l0.04-0.07c0.08-0.17,0.16-0.35,0.24-0.52
		c0.04-0.09,0.08-0.18,0.12-0.26c0.07-0.17,0.15-0.34,0.22-0.52c0.04-0.09,0.07-0.18,0.11-0.27c0.07-0.18,0.14-0.36,0.2-0.53
		l0.02-0.06c0.02-0.06,0.05-0.13,0.07-0.2c0.07-0.2,0.13-0.4,0.2-0.6l0.02-0.07c0.02-0.05,0.03-0.09,0.05-0.14
		c0.17-0.54,0.32-1.1,0.45-1.65c0.01-0.05,0.02-0.1,0.03-0.16l0.02-0.07c0.04-0.2,0.09-0.4,0.13-0.61c0.01-0.07,0.03-0.15,0.04-0.22
		l0.01-0.08c0.03-0.18,0.07-0.36,0.09-0.54c0.02-0.11,0.03-0.22,0.05-0.33c0.03-0.18,0.05-0.35,0.07-0.53
		c0.01-0.11,0.03-0.23,0.04-0.34c0.02-0.18,0.04-0.36,0.05-0.54l0.01-0.08c0.01-0.08,0.01-0.17,0.02-0.25
		c0.01-0.2,0.02-0.39,0.03-0.59l0-0.09c0-0.06,0.01-0.13,0.01-0.19c0.01-0.31,0.02-0.6,0.02-0.88c0-0.26-0.01-0.53-0.02-0.86
		l-0.01-0.19c-0.01-0.3-0.03-0.57-0.05-0.83l-0.01-0.12c-0.02-0.25-0.05-0.5-0.08-0.76l-0.02-0.16c-0.03-0.28-0.07-0.56-0.11-0.83
		l-0.02-0.13c-0.05-0.29-0.09-0.56-0.14-0.81l-0.01-0.04c-0.06-0.28-0.12-0.58-0.19-0.87l-0.02-0.07c-0.14-0.59-0.31-1.18-0.49-1.74
		c-0.09-0.29-0.19-0.59-0.31-0.91l-0.05-0.13c-0.12-0.32-0.23-0.59-0.33-0.85c-3.78-9.05-12.55-14.9-22.34-14.9
		c-9.79,0-18.56,5.85-22.34,14.9c-1.23,2.95-1.86,6.08-1.86,9.3c0,4.85,1.44,9.54,4.16,13.55
		C582.38,165.05,589.88,169.03,597.91,169.03z"/>
	<path class="st2" d="M613.74,156.18c-3.66,5.1-9.58,8.14-15.83,8.14c-6.25,0-12.17-3.04-15.83-8.14l0,0
		c-2.39-3.32-3.66-7.25-3.66-11.35c0-2.95,0.64-5.77,1.91-8.41c3.23-6.73,10.14-11.09,17.59-11.09c7.45,0,14.35,4.35,17.59,11.09
		c1.27,2.63,1.91,5.46,1.91,8.41C617.4,148.93,616.14,152.86,613.74,156.18z"/>
</g>
</svg>
