<?xml version="1.0" encoding="utf-8"?>
<!-- Generator: Adobe Illustrator 26.5.3, SVG Export Plug-In . SVG Version: 6.00 Build 0)  -->
<svg version="1.1" id="Layer_1" xmlns="http://www.w3.org/2000/svg" xmlns:xlink="http://www.w3.org/1999/xlink" x="0px" y="0px"
	 viewBox="0 0 32 32" style="enable-background:new 0 0 32 32;" xml:space="preserve">
<style type="text/css">
	.st0{opacity:0.7;}
	.st1{fill:#B90003;stroke:#FFFFFF;stroke-width:0.2359;stroke-miterlimit:10;}
	.st2{fill:#B22234;stroke:#FFFFFF;stroke-width:0.2359;stroke-miterlimit:10;}
	.st3{fill:#FFFFFF;stroke:#FFFFFF;stroke-width:0.2359;stroke-miterlimit:10;}
</style>
<g class="st0">
	<path class="st1" d="M27.52,17.67c0-1.2-0.19-2.39-0.57-3.52c-0.37-1.1-0.9-2.12-1.59-3.06c-0.53-0.72-1.15-1.38-1.83-1.95V1.7
		c0-0.47-0.38-0.84-0.85-0.84H10.14C9.68,0.85,9.3,1.23,9.3,1.7v7.44C8.61,9.71,8,10.37,7.46,11.09c-0.69,0.93-1.22,1.96-1.59,3.06
		c-0.38,1.13-0.57,2.32-0.57,3.52c0,4.95,3.26,9.16,7.74,10.59l0.03,0.11c0.21,0.7,0.65,1.34,1.24,1.78c0.61,0.46,1.33,0.7,2.1,0.7
		c0.77,0,1.49-0.24,2.1-0.7c0.59-0.45,1.03-1.08,1.24-1.78l0.03-0.11C24.27,26.82,27.52,22.62,27.52,17.67z"/>
	<path class="st2" d="M9.65,1.7c0-0.27,0.22-0.49,0.49-0.49h12.54c0.27,0,0.49,0.22,0.49,0.49v6.94c-0.93-0.7-1.96-1.25-3.06-1.63
		c-0.21-0.79-0.67-1.5-1.31-2.02c-0.68-0.54-1.53-0.84-2.39-0.84c-0.87,0-1.72,0.3-2.39,0.84C13.38,5.5,12.92,6.22,12.71,7
		c-1.1,0.38-2.13,0.93-3.06,1.63V1.7z"/>
	<path class="st2" d="M16.41,30.5c-1.26,0-2.41-0.78-2.89-1.92c0.94,0.25,1.91,0.37,2.89,0.37c0.98,0,1.95-0.13,2.89-0.37
		C18.82,29.72,17.67,30.5,16.41,30.5z"/>
	<path class="st1" d="M16.41,28.42c-5.93,0-10.76-4.83-10.76-10.76c0-4.66,2.98-8.77,7.41-10.22l0.1-0.03l0.02-0.1
		c0.31-1.53,1.67-2.64,3.23-2.64c1.56,0,2.92,1.11,3.23,2.64l0.02,0.1l0.1,0.03c4.43,1.45,7.41,5.56,7.41,10.22
		C27.17,23.6,22.34,28.42,16.41,28.42z"/>
	<path class="st1" d="M23.54,12.66c-0.5-0.71-1.1-1.34-1.78-1.87c-0.69-0.54-1.45-0.97-2.27-1.28l-0.14-0.05l-0.07,0.13
		c-0.58,1.03-1.68,1.67-2.86,1.67c-1.18,0-2.28-0.64-2.86-1.67l-0.07-0.13l-0.14,0.05c-0.81,0.31-1.58,0.74-2.27,1.28
		c-0.68,0.53-1.28,1.16-1.78,1.87c-1.04,1.47-1.58,3.2-1.58,5.01c0,4.81,3.91,8.72,8.72,8.72c4.81,0,8.72-3.91,8.72-8.72
		C25.13,15.86,24.58,14.13,23.54,12.66z"/>
	<path class="st1" d="M9.65,13.05c0.9-1.31,2.14-2.33,3.6-2.94c0.33,0.48,0.77,0.89,1.28,1.18c0.57,0.32,1.22,0.49,1.88,0.49
		c0.66,0,1.31-0.17,1.88-0.49c0.51-0.29,0.95-0.69,1.28-1.18c1.46,0.61,2.7,1.63,3.6,2.94v1.18c0,0.27-0.22,0.49-0.49,0.49H10.14
		c-0.27,0-0.49-0.22-0.49-0.49V13.05z"/>
	<path class="st2" d="M16.41,25.85c-0.85,0-1.69-0.13-2.49-0.39c0.59-0.77,1.51-1.23,2.49-1.23c0.98,0,1.9,0.46,2.49,1.23
		C18.1,25.72,17.26,25.85,16.41,25.85z"/>
	<path class="st3" d="M19.35,25.5l-0.02-0.03c-0.65-0.99-1.74-1.58-2.92-1.58c-1.18,0-2.27,0.59-2.92,1.58l-0.02,0.03
		c-3.17-1.19-5.43-4.25-5.43-7.83c0-1.58,0.45-3.09,1.25-4.38v0.95c0,0.47,0.38,0.84,0.84,0.84h12.54c0.47,0,0.85-0.38,0.85-0.84
		v-0.95c0.8,1.29,1.25,2.81,1.25,4.38C24.78,21.25,22.52,24.31,19.35,25.5z"/>
	<path class="st3" d="M16.41,10.69c0.9,0,1.75-0.45,2.25-1.2c0.05-0.08,0.11-0.16,0.15-0.25c0,0,0-0.01,0.01-0.01l0-0.01
		c0.01-0.02,0.02-0.04,0.03-0.06c0-0.01,0.01-0.01,0.01-0.02l0-0.01c0.01-0.02,0.02-0.04,0.03-0.06c0-0.01,0.01-0.02,0.01-0.03
		c0.01-0.02,0.02-0.04,0.02-0.06c0-0.01,0.01-0.02,0.01-0.03c0.01-0.02,0.02-0.04,0.02-0.06l0-0.01c0-0.01,0.01-0.01,0.01-0.02
		C18.99,8.84,19,8.82,19,8.79l0-0.01c0-0.01,0-0.01,0.01-0.02c0.02-0.06,0.04-0.12,0.05-0.19c0-0.01,0-0.01,0-0.02l0-0.01
		c0.01-0.02,0.01-0.05,0.01-0.07c0-0.01,0-0.02,0-0.03l0-0.01c0-0.02,0.01-0.04,0.01-0.06c0-0.01,0-0.02,0.01-0.04
		c0-0.02,0.01-0.04,0.01-0.06c0-0.01,0-0.03,0-0.04c0-0.02,0-0.04,0.01-0.06l0-0.01c0-0.01,0-0.02,0-0.03c0-0.02,0-0.04,0-0.07
		l0-0.01c0-0.01,0-0.01,0-0.02c0-0.04,0-0.07,0-0.1c0-0.03,0-0.06,0-0.1l0-0.02c0-0.03,0-0.06-0.01-0.09l0-0.01
		c0-0.03-0.01-0.06-0.01-0.09l0-0.02c0-0.03-0.01-0.06-0.01-0.09l0-0.02c-0.01-0.03-0.01-0.06-0.02-0.09l0,0
		c-0.01-0.03-0.01-0.06-0.02-0.1l0-0.01c-0.02-0.07-0.03-0.13-0.06-0.2c-0.01-0.03-0.02-0.07-0.04-0.1l-0.01-0.01
		c-0.01-0.04-0.03-0.07-0.04-0.1c-0.43-1.02-1.41-1.68-2.51-1.68c-1.1,0-2.09,0.66-2.51,1.68c-0.14,0.33-0.21,0.68-0.21,1.05
		c0,0.55,0.16,1.07,0.47,1.52C14.67,10.24,15.51,10.69,16.41,10.69z"/>
	<path class="st3" d="M18.19,9.24c-0.41,0.57-1.08,0.92-1.78,0.92c-0.7,0-1.37-0.34-1.78-0.92l0,0c-0.27-0.37-0.41-0.82-0.41-1.28
		c0-0.33,0.07-0.65,0.21-0.95c0.36-0.76,1.14-1.25,1.98-1.25c0.84,0,1.61,0.49,1.98,1.25c0.14,0.3,0.21,0.61,0.21,0.95
		C18.6,8.43,18.46,8.87,18.19,9.24z"/>
</g>
</svg>
