<?xml version="1.0" encoding="utf-8"?>
<!-- Generator: Adobe Illustrator 16.0.3, SVG Export Plug-In . SVG Version: 6.00 Build 0)  -->
<!DOCTYPE svg PUBLIC "-//W3C//DTD SVG 1.1//EN" "http://www.w3.org/Graphics/SVG/1.1/DTD/svg11.dtd">
<svg version="1.1" id="Layer_1" xmlns="http://www.w3.org/2000/svg" xmlns:xlink="http://www.w3.org/1999/xlink" x="0px" y="0px"
	 width="160px" height="60px" viewBox="0 0 160 60" enable-background="new 0 0 160 60" xml:space="preserve">
<g>
	<g>
		<path fill-rule="evenodd" clip-rule="evenodd" fill="#1C3360" d="M17.553,57.331c-2.451,0-4.323-0.652-5.615-1.957
			C10.646,54.07,10,52.214,10,49.808c0-2.531,0.664-4.487,1.993-5.87c1.329-1.382,3.256-2.072,5.781-2.072
			c1.668,0,3.123,0.217,4.363,0.651v3.215c-1.122-0.435-2.488-0.652-4.098-0.652c-1.536,0-2.654,0.38-3.355,1.142
			c-0.702,0.761-1.052,1.956-1.052,3.587c0,1.475,0.329,2.565,0.985,3.272c0.657,0.706,1.643,1.06,2.957,1.06
			c0.856,0,1.654-0.124,2.392-0.373v-2.841h-3.079v-2.353h6.069v7.43c-0.576,0.389-1.314,0.706-2.215,0.955
			C19.841,57.206,18.778,57.331,17.553,57.331z"/>
		<path fill-rule="evenodd" clip-rule="evenodd" fill="#1C3360" d="M25.629,46.058h3.389l0.111,1.024
			c0.472-0.295,1.048-0.563,1.728-0.804c0.679-0.24,1.351-0.392,2.016-0.454v2.818c-0.62,0.078-1.285,0.214-1.994,0.408
			c-0.708,0.193-1.27,0.399-1.683,0.617v7.43h-3.566V46.058z"/>
		<path fill-rule="evenodd" clip-rule="evenodd" fill="#1C3360" d="M40.572,57.331c-3.942,0-5.914-1.918-5.914-5.754
			c0-1.863,0.491-3.288,1.473-4.273c0.982-0.986,2.462-1.479,4.441-1.479c1.994,0,3.481,0.489,4.463,1.468s1.473,2.406,1.473,4.285
			C46.508,55.413,44.529,57.331,40.572,57.331z M40.572,54.396c0.827,0,1.417-0.217,1.772-0.652
			c0.354-0.435,0.532-1.156,0.532-2.166c0-1.009-0.181-1.73-0.542-2.166c-0.362-0.435-0.949-0.652-1.761-0.652
			c-0.812,0-1.395,0.222-1.75,0.664s-0.532,1.161-0.532,2.154c0,1.01,0.177,1.731,0.532,2.166
			C39.177,54.179,39.76,54.396,40.572,54.396z"/>
		<path fill-rule="evenodd" clip-rule="evenodd" fill="#1C3360" d="M53.012,57.331c-1.255,0-2.226-0.369-2.913-1.106
			c-0.687-0.738-1.03-1.813-1.03-3.227v-6.94h3.566v6.731c0,0.621,0.14,1.075,0.421,1.362s0.716,0.431,1.307,0.431
			c0.413,0,0.812-0.089,1.196-0.268s0.708-0.415,0.975-0.711v-7.546H60.1v11.04h-3.322l-0.111-0.932
			C55.677,56.942,54.459,57.331,53.012,57.331z"/>
		<path fill-rule="evenodd" clip-rule="evenodd" fill="#1C3360" d="M63.215,46.058h3.322l0.111,0.955
			c0.458-0.342,1.015-0.625,1.672-0.851c0.657-0.225,1.333-0.338,2.026-0.338c1.344,0,2.33,0.342,2.957,1.025
			c0.627,0.683,0.941,1.739,0.941,3.167v7.081h-3.566V50.32c0-0.622-0.129-1.064-0.388-1.328s-0.705-0.396-1.34-0.396
			c-0.384,0-0.775,0.093-1.174,0.279c-0.398,0.187-0.731,0.419-0.997,0.698v7.523h-3.566V46.058z"/>
		<path fill-rule="evenodd" clip-rule="evenodd" fill="#1C3360" d="M81.657,57.331c-1.61,0-2.82-0.416-3.633-1.247
			c-0.812-0.83-1.218-2.2-1.218-4.11c0-1.305,0.218-2.419,0.654-3.343c0.436-0.924,1.041-1.622,1.816-2.096s1.672-0.711,2.691-0.711
			c1.02,0,1.92,0.249,2.702,0.746v-5.171h3.566v15.698h-3.079l-0.199-0.932c-0.442,0.388-0.93,0.68-1.462,0.873
			C82.964,57.233,82.352,57.331,81.657,57.331z M82.676,54.605c0.782,0,1.447-0.279,1.993-0.839v-4.472
			c-0.502-0.481-1.145-0.722-1.927-0.722c-0.753,0-1.325,0.299-1.716,0.896c-0.392,0.598-0.587,1.44-0.587,2.527
			c0,1.009,0.177,1.696,0.532,2.061C81.325,54.423,81.894,54.605,82.676,54.605z"/>
		<path fill-rule="evenodd" clip-rule="evenodd" fill="#1C3360" d="M98.461,57.331c-2.452,0-4.323-0.652-5.615-1.957
			c-1.292-1.304-1.938-3.16-1.938-5.566c0-2.531,0.664-4.487,1.994-5.87c1.328-1.382,3.256-2.072,5.78-2.072
			c1.669,0,3.124,0.217,4.363,0.651v3.215c-1.122-0.435-2.487-0.652-4.098-0.652c-1.535,0-2.654,0.38-3.355,1.142
			c-0.701,0.761-1.052,1.956-1.052,3.587c0,1.475,0.328,2.565,0.985,3.272c0.657,0.706,1.643,1.06,2.957,1.06
			c0.856,0,1.654-0.124,2.393-0.373v-2.841h-3.079v-2.353h6.068v7.43c-0.575,0.389-1.313,0.706-2.215,0.955
			C100.749,57.206,99.687,57.331,98.461,57.331z"/>
		<path fill-rule="evenodd" clip-rule="evenodd" fill="#1C3360" d="M109.815,57.331c-1.078,0-1.968-0.3-2.67-0.897
			c-0.701-0.598-1.052-1.455-1.052-2.573c0-1.149,0.373-2.042,1.119-2.679c0.745-0.637,1.834-0.955,3.267-0.955h2.924v-0.256
			c0-0.575-0.181-0.979-0.543-1.212c-0.361-0.232-1.022-0.349-1.982-0.349c-1.196,0-2.37,0.193-3.521,0.582V46.57
			c0.531-0.218,1.174-0.396,1.927-0.536s1.528-0.21,2.326-0.21c1.668,0,2.953,0.357,3.854,1.071c0.9,0.715,1.352,1.817,1.352,3.308
			v6.895h-3.123l-0.178-0.932C112.701,56.942,111.469,57.331,109.815,57.331z M110.944,55.024c1.063,0,1.883-0.356,2.459-1.071
			v-1.561h-2.525c-0.531,0-0.926,0.108-1.185,0.326s-0.388,0.552-0.388,1.002C109.306,54.59,109.852,55.024,110.944,55.024z"/>
		<path fill-rule="evenodd" clip-rule="evenodd" fill="#1C3360" d="M119.818,46.058h3.301l0.11,0.979
			c1.063-0.808,2.229-1.212,3.5-1.212c0.679,0,1.222,0.108,1.628,0.326s0.727,0.536,0.963,0.955
			c0.532-0.403,1.104-0.718,1.717-0.943c0.612-0.225,1.311-0.338,2.093-0.338c1.211,0,2.108,0.334,2.691,1.002
			c0.583,0.667,0.875,1.685,0.875,3.051v7.221h-3.521V50.32c0-0.606-0.122-1.045-0.366-1.316c-0.243-0.271-0.638-0.407-1.185-0.407
			c-0.354,0-0.69,0.073-1.008,0.221s-0.587,0.354-0.809,0.617c0.045,0.233,0.066,0.582,0.066,1.048v6.615h-3.322v-6.824
			c0-0.591-0.096-1.018-0.288-1.281c-0.191-0.264-0.539-0.396-1.04-0.396c-0.621,0-1.263,0.333-1.928,1.001v7.5h-3.478V46.058z"/>
		<path fill-rule="evenodd" clip-rule="evenodd" fill="#1C3360" d="M145.326,57.331c-1.875,0-3.355-0.489-4.44-1.468
			c-1.086-0.979-1.628-2.407-1.628-4.286c0-1.801,0.469-3.21,1.406-4.228c0.938-1.017,2.3-1.525,4.087-1.525
			c1.639,0,2.923,0.45,3.854,1.352c0.931,0.9,1.396,2.111,1.396,3.633v1.98h-7.442c0.163,0.714,0.532,1.219,1.107,1.514
			c0.576,0.295,1.403,0.442,2.481,0.442c0.575,0,1.162-0.055,1.761-0.163c0.598-0.108,1.096-0.248,1.495-0.419v2.445
			C148.397,57.09,147.039,57.331,145.326,57.331z M146.898,50.623v-0.489c0-1.181-0.679-1.771-2.037-1.771
			c-0.842,0-1.437,0.179-1.783,0.536c-0.347,0.356-0.521,0.932-0.521,1.724H146.898z"/>
	</g>
	<g>
		<path fill="#B12234" d="M92.214,22.705c0-1.323-0.212-2.625-0.629-3.871c-0.403-1.204-0.991-2.335-1.749-3.362
			c-0.586-0.794-1.262-1.512-2.017-2.143V5.148c0-0.512-0.417-0.929-0.929-0.929H73.109c-0.512,0-0.929,0.417-0.929,0.929v8.181
			c-0.755,0.63-1.431,1.348-2.017,2.143c-0.757,1.027-1.346,2.158-1.749,3.362c-0.417,1.245-0.629,2.547-0.629,3.871
			c0,5.443,3.579,10.066,8.507,11.639l0.037,0.124c0.231,0.774,0.714,1.47,1.362,1.96c0.669,0.506,1.467,0.773,2.309,0.773
			c0.841,0,1.64-0.268,2.309-0.773c0.646-0.49,1.131-1.186,1.361-1.96l0.037-0.124C88.635,32.771,92.214,28.148,92.214,22.705z
			 M72.568,5.148c0-0.298,0.243-0.541,0.541-0.541h13.781c0.298,0,0.541,0.243,0.541,0.541v7.626
			c-1.026-0.771-2.156-1.373-3.365-1.793c-0.226-0.867-0.733-1.651-1.437-2.217C81.887,8.167,80.953,7.837,80,7.837
			s-1.887,0.33-2.63,0.927c-0.703,0.566-1.21,1.35-1.437,2.217c-1.208,0.42-2.338,1.022-3.365,1.793V5.148z M80,36.813
			c-1.388,0-2.646-0.853-3.176-2.112c1.032,0.273,2.099,0.411,3.176,0.411c1.076,0,2.143-0.138,3.175-0.411
			C82.646,35.961,81.388,36.813,80,36.813z M80,34.531c-6.521,0-11.826-5.305-11.826-11.827c0-5.125,3.274-9.642,8.148-11.241
			l0.107-0.035l0.022-0.111c0.339-1.68,1.832-2.899,3.548-2.899c1.717,0,3.208,1.219,3.547,2.899l0.022,0.111l0.107,0.035
			c4.874,1.598,8.149,6.116,8.149,11.241C91.826,29.226,86.521,34.531,80,34.531z"/>
		<path fill="#B12234" d="M87.841,17.201c-0.548-0.779-1.208-1.472-1.96-2.058c-0.76-0.592-1.599-1.064-2.495-1.403l-0.154-0.059
			l-0.083,0.145c-0.643,1.131-1.85,1.833-3.148,1.833c-1.3,0-2.506-0.703-3.149-1.833l-0.082-0.145l-0.155,0.059
			c-0.896,0.339-1.735,0.812-2.495,1.403c-0.752,0.586-1.412,1.279-1.96,2.058c-1.14,1.619-1.742,3.522-1.742,5.503
			c0,5.284,4.299,9.583,9.583,9.583s9.583-4.299,9.583-9.583C89.583,20.723,88.98,18.82,87.841,17.201z M72.568,17.631
			c0.988-1.444,2.354-2.558,3.958-3.23c0.363,0.532,0.847,0.978,1.408,1.296c0.627,0.355,1.342,0.543,2.066,0.543
			c0.724,0,1.438-0.188,2.065-0.543c0.561-0.318,1.044-0.764,1.407-1.296c1.604,0.672,2.971,1.786,3.959,3.23v1.298
			c0,0.298-0.243,0.541-0.541,0.541H73.109c-0.298,0-0.541-0.243-0.541-0.541V17.631z M80,31.706c-0.935,0-1.854-0.143-2.735-0.425
			c0.65-0.851,1.655-1.352,2.735-1.352c1.08,0,2.085,0.501,2.735,1.352C81.854,31.563,80.934,31.706,80,31.706z M83.23,31.314
			l-0.024-0.038c-0.711-1.086-1.91-1.735-3.206-1.735c-1.297,0-2.496,0.648-3.207,1.735l-0.024,0.038
			c-3.481-1.311-5.964-4.676-5.964-8.61c0-1.732,0.498-3.393,1.375-4.816v1.041c0,0.512,0.417,0.929,0.929,0.929h13.781
			c0.512,0,0.929-0.417,0.929-0.929v-1.041c0.878,1.422,1.376,3.084,1.376,4.816C89.195,26.639,86.712,30.003,83.23,31.314z"/>
		<path fill="#B12234" d="M80,15.031c0.993,0,1.919-0.492,2.478-1.317c0.061-0.088,0.116-0.181,0.166-0.275
			c0.003-0.005,0.005-0.01,0.008-0.014l0.004-0.007c0.012-0.023,0.023-0.047,0.035-0.071c0.004-0.007,0.007-0.013,0.01-0.02
			l0.005-0.009c0.01-0.021,0.02-0.043,0.029-0.064c0.005-0.011,0.01-0.022,0.015-0.033c0.009-0.021,0.018-0.042,0.026-0.064
			c0.005-0.011,0.009-0.022,0.014-0.034c0.009-0.021,0.017-0.044,0.024-0.066l0.003-0.008c0.003-0.008,0.006-0.016,0.009-0.024
			c0.009-0.024,0.017-0.049,0.024-0.074l0.003-0.008c0.002-0.006,0.004-0.012,0.006-0.017c0.021-0.067,0.039-0.136,0.056-0.205
			c0.001-0.006,0.002-0.013,0.004-0.019l0.002-0.009c0.006-0.025,0.011-0.05,0.016-0.075c0.002-0.01,0.004-0.019,0.005-0.028
			l0.002-0.01c0.005-0.022,0.008-0.044,0.012-0.067c0.002-0.014,0.004-0.027,0.007-0.041c0.003-0.022,0.006-0.044,0.008-0.065
			c0.002-0.014,0.004-0.028,0.006-0.042c0.002-0.022,0.004-0.044,0.006-0.066l0.001-0.01c0.001-0.01,0.002-0.021,0.003-0.032
			c0.002-0.024,0.003-0.048,0.004-0.073l0.001-0.011c0-0.008,0-0.016,0.001-0.024c0.001-0.039,0.002-0.075,0.002-0.109
			c0-0.032-0.001-0.066-0.002-0.107l-0.001-0.023c-0.002-0.037-0.004-0.071-0.006-0.104l-0.002-0.015
			c-0.002-0.031-0.005-0.063-0.009-0.094l-0.003-0.019c-0.004-0.035-0.009-0.069-0.014-0.103l-0.003-0.017
			c-0.006-0.036-0.012-0.069-0.018-0.1l-0.001-0.005c-0.007-0.035-0.016-0.072-0.023-0.107l-0.002-0.009
			c-0.019-0.073-0.039-0.146-0.062-0.215c-0.011-0.036-0.023-0.073-0.038-0.112l-0.006-0.016c-0.015-0.039-0.028-0.073-0.041-0.104
			C82.295,9.77,81.211,9.047,80,9.047s-2.295,0.723-2.763,1.843c-0.152,0.365-0.229,0.751-0.229,1.149
			c0,0.6,0.177,1.179,0.514,1.675C78.081,14.539,79.007,15.031,80,15.031z M81.958,13.443c-0.453,0.63-1.185,1.007-1.958,1.007
			c-0.773,0-1.505-0.376-1.958-1.007l0,0c-0.296-0.411-0.453-0.896-0.453-1.404c0-0.364,0.079-0.714,0.236-1.04
			c0.399-0.833,1.253-1.371,2.174-1.371c0.921,0,1.774,0.538,2.174,1.371c0.157,0.326,0.236,0.675,0.236,1.04
			C82.41,12.546,82.254,13.032,81.958,13.443z"/>
	</g>
</g>
</svg>
